<svg width="512" height="512" fill="none" xmlns="http://www.w3.org/2000/svg"><g clip-path="url(#a)"><path d="M0 155h512v202H0V155Z" fill="#424242"/><path d="m256 30 226.678 113v226L256 482 29.322 369V143L256 30Z" fill="#FFD400"/><path fill-rule="evenodd" clip-rule="evenodd" d="M256 49.326 46.618 153.704v204.592L256 462.674l209.382-104.378V153.704L256 49.326ZM482.678 143 256 30 29.322 143v226L256 482l226.678-113V143Z" fill="#303030"/><path d="M111.865 326.69c-39.108-79.56-6.286-175.874 73.282-214.991 79.555-39.116 175.879-6.283 214.988 73.277 39.108 79.56 6.286 175.875-73.282 214.991-79.49 39.065-175.697 6.361-214.884-73.082" fill="url(#b)"/><path fill-rule="evenodd" clip-rule="evenodd" d="M392.746 188.408c-37.098-75.304-128.488-106.395-203.969-69.363h-.001c-75.488 37.03-106.616 128.199-69.522 203.496l-15.107 7.433c-41.212-83.655-6.621-184.913 77.209-226.035 83.811-41.118 185.288-6.611 226.497 77.037 41.212 83.655 6.621 184.912-77.209 226.034h-.001c-83.74 41.063-185.096 6.694-226.387-76.831l15.097-7.454c37.172 75.193 128.448 106.162 203.871 69.179 75.488-37.029 106.616-128.198 69.522-203.496Z" fill="#000"/><path fill-rule="evenodd" clip-rule="evenodd" d="M120.372 229.849c-9.061 3.712-13.902 8.238-15.87 13l-15.584-6.368c4.359-10.546 13.836-17.534 25.036-22.122 11.255-4.611 25.317-7.262 40.801-8.524 31.023-2.53 69.633.379 107.422 6.185 37.851 5.816 75.368 14.615 104.323 24.107 14.449 4.736 27.013 9.726 36.491 14.718 4.731 2.492 8.919 5.102 12.245 7.829 3.181 2.61 6.333 5.937 7.846 10.063l-15.829 5.738c0 .001-.461-1.009-2.738-2.877-2.134-1.75-5.249-3.757-9.411-5.949-8.306-4.376-19.882-9.023-33.879-13.612-27.936-9.158-64.532-17.762-101.621-23.461-37.149-5.707-74.303-8.423-103.472-6.044-14.613 1.191-26.754 3.627-35.76 7.317Z" fill="#000"/><path fill-rule="evenodd" clip-rule="evenodd" d="M353.354 168.777c-10.368-28.511-30.906-54.375-61.854-65.277L300 96c36.326 12.796 57.265 34.507 69.098 67.047 11.754 32.322 12.536 70.375 5.024 106.917-7.518 36.573-23.469 72.267-45.923 99.964-22.448 27.689-51.838 47.876-86.167 52.072l-7.532-13.5c28.837-3.524 60.117-23.756 80.687-49.13 20.565-25.366 35.481-58.515 42.525-92.782 7.051-34.297 6.09-69.082-4.358-97.811Z" fill="#000"/><path fill-rule="evenodd" clip-rule="evenodd" d="M238.278 137.479c-16.3-10.742-32.481-18.324-49.684-19.761l1.398-16.779c21.231 1.774 40.188 11.047 57.533 22.477 11.493 7.574 22.884 16.542 33.866 25.188 5.341 4.205 10.585 8.333 15.698 12.189 16.096 12.138 31.455 22.065 47.338 26.679 15.468 4.494 31.752 4.039 50.223-5.385l7.636 15.001c-22.43 11.443-43.135 12.192-62.546 6.554-18.996-5.519-36.405-17.061-52.769-29.401-5.729-4.32-11.28-8.694-16.764-13.014-10.628-8.374-21.003-16.548-31.929-23.748ZM207.74 336.641c-29.793 9.928-61.228 16.983-90.855 12.504l2.5-16.763c25.614 3.873 53.955-2.134 83.064-11.833 14.477-4.825 28.896-10.472 43.069-16.095l3.787-1.503c12.796-5.082 25.412-10.092 37.385-14.237 13.142-4.55 25.899-8.199 37.734-9.787 11.817-1.586 23.316-1.204 33.586 2.903 21.543 8.616 33.132 31.39 35.671 69.679l-16.8 1.129c-2.408-36.317-12.876-50.171-25.087-55.054-6.608-2.643-14.911-3.228-25.145-1.855-10.214 1.371-21.755 4.607-34.483 9.014-11.598 4.015-23.86 8.884-36.734 13.997l-3.742 1.485c-14.163 5.618-28.977 11.426-43.95 16.416Z" fill="#000"/></g><defs><linearGradient id="b" x1="19.12" y1="34.05" x2="392.318" y2="322.396" gradientUnits="userSpaceOnUse"><stop stop-color="#FF7F2A"/><stop offset="1" stop-color="#FF7F2A"/></linearGradient><clipPath id="a"><path fill="#fff" d="M0 0h512v512H0z"/></clipPath></defs></svg>
