<svg width="512" height="512" viewBox="0 0 512 512" fill="none" xmlns="http://www.w3.org/2000/svg">
<g clip-path="url(#clip0_23_2)">
<g filter="url(#filter0_d_23_2)">
<path d="M37.9671 363.916C-21.1929 242.993 28.4575 96.6045 148.821 37.1514C269.164 -22.3016 414.874 27.6018 474.034 148.525C533.194 269.447 483.543 415.836 363.18 475.289C242.934 534.663 97.4022 484.957 38.1243 364.212" fill="#FFD700"/>
<path fill-rule="evenodd" clip-rule="evenodd" d="M342.526 41.5449C298.023 23.4942 248.074 19.3432 199.823 31.5366C215.039 37.6692 229.444 45.8653 243.179 54.96C260.566 66.4718 277.796 80.1016 294.41 93.2433C302.489 99.634 310.422 105.909 318.156 111.769C342.504 130.218 365.738 145.306 389.764 152.319C397.071 154.452 404.498 155.851 412.109 156.331C409.947 145.094 407.01 134.242 403.269 123.905C391.594 91.6488 371.397 61.6227 342.526 41.5449ZM154.311 48.3168C155.444 47.7582 156.579 47.2098 157.717 46.6716C182.374 49.5853 205.701 60.7809 229.192 76.3348C245.72 87.2778 261.413 99.7012 277.491 112.429C285.786 118.995 294.183 125.642 302.85 132.209C327.604 150.965 353.939 168.508 382.675 176.895C393.401 180.026 404.389 181.861 415.669 182.081C416.86 195.747 417.03 209.799 416.227 224.03C373.458 210.465 319.628 198.009 265.344 189.629C208.181 180.805 149.774 176.383 102.846 180.228C79.4237 182.147 58.1512 186.176 41.1257 193.184C38.3858 194.312 35.7141 195.535 33.1322 196.861C49.58 134.356 91.9339 79.0601 154.31 48.3171L154.311 48.3168ZM441.059 232.492C442.423 214.76 442.418 197.094 440.915 179.846C450.466 177.962 460.226 174.852 470.214 170.344C480.969 197.403 486.25 225.488 486.511 253.267C483.944 251.695 481.215 250.153 478.354 248.639C468.092 243.208 455.438 237.779 441.059 232.492ZM415.172 88.4882C432.58 105.129 447.634 124.775 459.487 147.137C451.948 150.517 444.646 152.903 437.539 154.423C435.095 140.9 431.633 127.763 427.084 115.196C423.645 105.692 419.697 96.7967 415.172 88.4882ZM413.716 249.973C371.645 236.232 316.913 223.355 261.452 214.793C205.256 206.118 149.053 201.99 104.928 205.605C82.8233 207.416 64.4577 211.119 50.8344 216.727C37.1273 222.369 29.8046 229.248 26.8275 236.485L26.3152 236.275C22.8679 276.711 29.9997 318.564 49.1441 357.61L26.2912 368.906C-36.0506 241.759 16.2754 87.858 143.086 25.3576C269.867 -37.1383 423.372 15.3084 485.709 142.445C548.051 269.592 495.725 423.493 368.914 485.994L368.912 485.994C242.239 548.405 88.9175 496.169 26.4563 369.218L49.2938 357.89C51.9461 363.281 54.7806 368.522 57.7861 373.61C94.2762 377.108 134.135 368.261 174.993 354.582C196.893 347.249 218.704 338.665 240.143 330.12C242.037 329.365 243.928 328.611 245.817 327.857L245.873 327.835C265.23 320.111 284.313 312.496 302.425 306.195C322.304 299.281 341.602 293.735 359.506 291.321C375.309 289.19 390.737 289.397 404.836 293.787C406.728 286.763 408.405 279.681 409.861 272.567C411.4 265.041 412.688 257.5 413.716 249.973ZM397.259 318.385C387.905 315.492 376.524 315.018 362.872 316.858C347.42 318.942 329.962 323.861 310.708 330.559C293.164 336.661 274.616 344.061 255.141 351.832L254.891 351.932C253.095 352.648 251.292 353.368 249.481 354.09C228.055 362.629 205.647 371.456 182.996 379.04C148.032 390.746 111.573 399.825 76.0553 400.129C116.049 450.272 174.648 480.604 236.594 485.921C276.358 476.702 317.513 448.312 345.532 413.586C367.375 386.515 385.006 353.613 397.259 318.385ZM418.859 333.278C428.332 345.167 435.567 364.845 438.374 397.018C417.535 424.097 390.358 446.933 357.69 463.034C342.292 470.62 326.458 476.325 310.447 480.238C330.829 466.812 349.191 449.492 365.215 429.633C387.682 401.789 405.845 368.627 418.859 333.278ZM459.289 364.541C453.404 337.657 442.983 318.253 427.772 305.949C430.437 296.607 432.746 287.172 434.684 277.699C435.983 271.349 437.118 264.97 438.083 258.577C449.187 262.843 458.732 267.069 466.424 271.14C472.719 274.471 477.432 277.522 480.659 280.181C483.419 282.456 484.416 283.894 484.703 284.375C481.168 312.424 472.534 339.625 459.289 364.541Z" fill="#493D00"/>
</g>
</g>
<defs>
<filter id="filter0_d_23_2" x="-3" y="-4" width="518" height="519.344" filterUnits="userSpaceOnUse" color-interpolation-filters="sRGB">
<feFlood flood-opacity="0" result="BackgroundImageFix"/>
<feColorMatrix in="SourceAlpha" type="matrix" values="0 0 0 0 0 0 0 0 0 0 0 0 0 0 0 0 0 0 127 0" result="hardAlpha"/>
<feOffset/>
<feGaussianBlur stdDeviation="1.5"/>
<feComposite in2="hardAlpha" operator="out"/>
<feColorMatrix type="matrix" values="0 0 0 0 1 0 0 0 0 1 0 0 0 0 1 0 0 0 1 0"/>
<feBlend mode="normal" in2="BackgroundImageFix" result="effect1_dropShadow_23_2"/>
<feBlend mode="normal" in="SourceGraphic" in2="effect1_dropShadow_23_2" result="shape"/>
</filter>
<clipPath id="clip0_23_2">
<rect width="512" height="512" fill="white"/>
</clipPath>
</defs>
</svg>
